<?xml version="1.0" encoding="UTF-8" standalone="no"?>
<!-- Created with Inkscape (http://www.inkscape.org/) -->

<svg
   width="210mm"
   height="297mm"
   viewBox="0 0 210 297"
   version="1.1"
   id="svg9062"
   xmlns="http://www.w3.org/2000/svg"
   xmlns:svg="http://www.w3.org/2000/svg">
  <defs
     id="defs9059" />
  <g
     id="layer1">
    <g
       id="g9188"
       transform="matrix(-0.18708867,0.18708867,-0.18708867,-0.18708867,198.72499,90.022382)">
      <g
         id="g9070"
         style="fill:#6ad7e5;fill-opacity:1">
	<g
   id="g9068"
   style="fill:#6ad7e5;fill-opacity:1">
		<path
   d="M 67.638,19.895 C 34.43,22.664 8.415,50.935 8.415,84.246 c 0,32.944 24.697,60.557 57.451,64.204 l 33.947,3.614 V 17.332 Z"
   id="path9066"
   style="fill:#6ad7e5;fill-opacity:1" />

	</g>

</g>
      <g
         id="g9076"
         style="fill:#f6d2a2;fill-opacity:1">
	<g
   id="g9074"
   style="fill:#f6d2a2;fill-opacity:1">
		<polygon
   points="159.813,12.331 129.813,14.832 129.813,155.397 159.813,158.729 "
   id="polygon9072"
   style="fill:#f6d2a2;fill-opacity:1" />

	</g>

</g>
      <g
         id="g9082"
         style="fill:#6ad7e5;fill-opacity:1">
	<g
   id="g9080"
   style="fill:#6ad7e5;fill-opacity:1">
		<path
   d="M 454.02,58.025 C 412.755,16.76 355.744,-4.304 297.604,0.735 L 189.813,9.832 V 162.06 l 59.773,6.795 c 23.818,2.637 46.274,13.433 63.223,30.381 16.949,16.948 27.744,39.404 30.381,63.208 L 349.985,322 H 502.213 L 511.31,214.441 C 516.159,156.287 495.285,99.275 454.02,58.025 Z"
   id="path9078"
   style="fill:#6ad7e5;fill-opacity:1" />

	</g>

</g>
      <g
         id="g9088"
         style="fill:#f6d2a2;fill-opacity:1">
	<g
   id="g9086"
   style="fill:#f6d2a2;fill-opacity:1">
		<polygon
   points="499.714,352 353.318,352 356.648,382 497.213,382 "
   id="polygon9084"
   style="fill:#f6d2a2;fill-opacity:1" />

	</g>

</g>
      <g
         id="g9094"
         style="fill:#6ad7e5;fill-opacity:1">
	<g
   id="g9092"
   style="fill:#6ad7e5;fill-opacity:1">
		<path
   d="m 359.981,412 3.614,34.179 c 3.647,32.754 31.26,57.451 64.204,57.451 33.311,0 61.582,-26.016 64.351,-59.224 L 494.713,412 Z"
   id="path9090"
   style="fill:#6ad7e5;fill-opacity:1" />

	</g>

</g>
      <g
         id="g9199"
         style="fill:#f6d2a2;fill-opacity:1">
        <g
           id="g9100"
           style="fill:#f6d2a2;fill-opacity:1">
	<g
   id="g9098"
   style="fill:#f6d2a2;fill-opacity:1">
		<path
   d="m 235.606,276.395 c -5.859,-5.859 -15.352,-5.859 -21.211,0 l -180,180 c -5.859,5.859 -5.859,15.352 0,21.211 5.86,5.86 15.351,5.86 21.211,0 l 180,-180 c 5.859,-5.86 5.859,-15.352 0,-21.211 z"
   id="path9096"
   style="fill:#f6d2a2;fill-opacity:1" />

	</g>

</g>
        <g
           id="g9106"
           style="fill:#f6d2a2;fill-opacity:1">
	<g
   id="g9104"
   style="fill:#f6d2a2;fill-opacity:1">
		<path
   d="m 265.606,366.395 c -5.859,-5.859 -15.352,-5.86 -21.211,0 l -120,120 c -5.859,5.859 -5.859,15.352 0,21.211 5.86,5.86 15.351,5.86 21.211,0 l 120,-120 c 5.859,-5.859 5.859,-15.352 0,-21.211 z"
   id="path9102"
   style="fill:#f6d2a2;fill-opacity:1" />

	</g>

</g>
        <g
           id="g9112"
           style="fill:#f6d2a2;fill-opacity:1">
	<g
   id="g9110"
   style="fill:#f6d2a2;fill-opacity:1">
		<path
   d="m 145.606,246.395 c -5.859,-5.859 -15.352,-5.859 -21.211,0 l -120,120 c -5.859,5.859 -5.859,15.352 0,21.211 5.86,5.86 15.351,5.86 21.211,0 l 120,-120 c 5.859,-5.86 5.859,-15.352 0,-21.211 z"
   id="path9108"
   style="fill:#f6d2a2;fill-opacity:1" />

	</g>

</g>
      </g>
      <g
         id="g9114">
</g>
      <g
         id="g9116">
</g>
      <g
         id="g9118">
</g>
      <g
         id="g9120">
</g>
      <g
         id="g9122">
</g>
      <g
         id="g9124">
</g>
      <g
         id="g9126">
</g>
      <g
         id="g9128">
</g>
      <g
         id="g9130">
</g>
      <g
         id="g9132">
</g>
      <g
         id="g9134">
</g>
      <g
         id="g9136">
</g>
      <g
         id="g9138">
</g>
      <g
         id="g9140">
</g>
      <g
         id="g9142">
</g>
      <g
         id="g11547"
         transform="rotate(-135,538.85229,429.5863)">
        <path
           fill-rule="evenodd"
           clip-rule="evenodd"
           fill="#f6d2a2"
           stroke="#000000"
           stroke-width="3"
           stroke-linecap="round"
           d="m 10.634,300.493 c 0.764,15.751 16.499,8.463 23.626,3.539 6.765,-4.675 8.743,-0.789 9.337,-10.015 0.389,-6.064 1.088,-12.128 0.744,-18.216 -10.23,-0.927 -21.357,1.509 -29.744,7.602 -4.32,3.139 -12.42,13.158 -3.963,17.09"
           id="path11461" />
        <path
           fill-rule="evenodd"
           clip-rule="evenodd"
           fill="#c6b198"
           stroke="#000000"
           stroke-width="3"
           stroke-linecap="round"
           d="m 10.634,300.493 c 2.29,-0.852 4.717,-1.457 6.271,-3.528"
           id="path11463" />
        <path
           fill-rule="evenodd"
           clip-rule="evenodd"
           fill="#6ad7e5"
           stroke="#000000"
           stroke-width="3"
           stroke-linecap="round"
           d="M 46.997,112.853 C -13.3,95.897 31.536,19.189 79.956,50.74 Z"
           id="path11465" />
        <path
           fill-rule="evenodd"
           clip-rule="evenodd"
           fill="#6ad7e5"
           stroke="#000000"
           stroke-width="3"
           stroke-linecap="round"
           d="m 314.895,44.984 c 47.727,-33.523 90.856,42.111 35.388,61.141 z"
           id="path11467" />
        <path
           fill-rule="evenodd"
           clip-rule="evenodd"
           fill="#f6d2a2"
           stroke="#000000"
           stroke-width="3"
           stroke-linecap="round"
           d="m 325.161,494.343 c 12.123,7.501 34.282,30.182 16.096,41.18 -17.474,15.999 -27.254,-17.561 -42.591,-22.211 6.605,-8.97 14.977,-17.149 26.495,-18.969 z"
           id="path11469" />
        <path
           fill-rule="evenodd"
           clip-rule="evenodd"
           fill="none"
           stroke="#000000"
           stroke-width="3"
           stroke-linecap="round"
           d="m 341.257,535.522 c -2.696,-5.361 -3.601,-11.618 -8.102,-15.939"
           id="path11471" />
        <path
           fill-rule="evenodd"
           clip-rule="evenodd"
           fill="#f6d2a2"
           stroke="#000000"
           stroke-width="3"
           stroke-linecap="round"
           d="m 108.579,519.975 c -14.229,2.202 -22.238,15.039 -34.1,21.558 -11.178,6.665 -15.454,-2.134 -16.461,-3.92 -1.752,-0.799 -1.605,0.744 -4.309,-1.979 -10.362,-16.354 10.797,-28.308 21.815,-36.432 15.346,-3.102 24.963,10.202 33.055,20.773 z"
           id="path11473" />
        <path
           fill-rule="evenodd"
           clip-rule="evenodd"
           fill="none"
           stroke="#000000"
           stroke-width="3"
           stroke-linecap="round"
           d="m 58.019,537.612 c 0.542,-6.233 5.484,-10.407 7.838,-15.677"
           id="path11475" />
        <path
           fill-rule="evenodd"
           clip-rule="evenodd"
           d="M 49.513,91.667 C 41.558,87.459 35.722,81.744 40.588,72.543 45.093,64.025 53.462,64.95 61.418,69.158 Z"
           id="path11477" />
        <path
           fill-rule="evenodd"
           clip-rule="evenodd"
           d="m 337.716,83.667 c 7.955,-4.208 13.791,-9.923 8.925,-19.124 -4.505,-8.518 -12.874,-7.593 -20.83,-3.385 z"
           id="path11479" />
        <path
           fill-rule="evenodd"
           clip-rule="evenodd"
           fill="#f6d2a2"
           stroke="#000000"
           stroke-width="3"
           stroke-linecap="round"
           d="m 392.475,298.493 c -0.764,15.751 -16.499,8.463 -23.626,3.539 -6.765,-4.675 -8.743,-0.789 -9.337,-10.015 -0.389,-6.064 -1.088,-12.128 -0.744,-18.216 10.23,-0.927 21.357,1.509 29.744,7.602 4.319,3.139 12.42,13.158 3.963,17.09"
           id="path11481" />
        <path
           fill-rule="evenodd"
           clip-rule="evenodd"
           fill="#c6b198"
           stroke="#000000"
           stroke-width="3"
           stroke-linecap="round"
           d="m 392.475,298.493 c -2.29,-0.852 -4.717,-1.457 -6.271,-3.528"
           id="path11483" />
        <g
           id="g11487">
	<path
   fill-rule="evenodd"
   clip-rule="evenodd"
   fill="#6ad7e5"
   stroke="#000000"
   stroke-width="3"
   stroke-linecap="round"
   d="m 195.512,13.124 c 60.365,0 116.953,8.633 146.452,66.629 26.478,65.006 17.062,135.104 21.1,203.806 3.468,58.992 11.157,127.145 -16.21,181.812 -28.79,57.514 -100.73,71.982 -160,69.863 C 140.299,533.568 84.06,518.38 57.785,475.845 26.959,425.945 41.553,351.747 43.792,296.223 46.444,230.452 25.977,164.481 47.584,100.122 69.999,33.359 130.451,18.271 195.512,13.124"
   id="path11485" />

</g>
        <path
           fill-rule="evenodd"
           clip-rule="evenodd"
           fill="#ffffff"
           stroke="#000000"
           stroke-width="2.9081"
           stroke-linecap="round"
           d="m 206.169,94.16 c 10.838,63.003 113.822,46.345 99.03,-17.197 -13.264,-56.98 -102.632,-41.208 -99.03,17.197"
           id="path11489" />
        <path
           fill-rule="evenodd"
           clip-rule="evenodd"
           fill="#ffffff"
           stroke="#000000"
           stroke-width="2.8214"
           stroke-linecap="round"
           d="M 83.103,104.35 C 97.15,159.2 184.967,145.157 181.657,90.137 177.691,24.242 69.673,36.957 83.103,104.35"
           id="path11491" />
        <path
           fill-rule="evenodd"
           clip-rule="evenodd"
           fill="#ffffff"
           stroke="#000000"
           stroke-width="3"
           stroke-linecap="round"
           d="m 218.594,169.762 c 0.046,8.191 1.861,17.387 0.312,26.101 -2.091,3.952 -6.193,4.37 -9.729,5.967 -4.89,-0.767 -9.002,-3.978 -10.963,-8.552 -1.255,-9.946 0.468,-19.576 0.785,-29.526 z"
           id="path11493" />
        <g
           id="g11499">
	<ellipse
   fill-rule="evenodd"
   clip-rule="evenodd"
   cx="107.324"
   cy="95.403999"
   rx="14.829"
   ry="16.062"
   id="ellipse11495" />

	<ellipse
   fill-rule="evenodd"
   clip-rule="evenodd"
   fill="#ffffff"
   cx="114.069"
   cy="99.028999"
   rx="3.4960001"
   ry="4.0819998"
   id="ellipse11497" />

</g>
        <g
           id="g11505">
	<ellipse
   fill-rule="evenodd"
   clip-rule="evenodd"
   cx="231.571"
   cy="91.403999"
   rx="14.582"
   ry="16.062"
   id="ellipse11501" />

	<ellipse
   fill-rule="evenodd"
   clip-rule="evenodd"
   fill="#ffffff"
   cx="238.20399"
   cy="95.028999"
   rx="3.438"
   ry="4.0819998"
   id="ellipse11503" />

</g>
        <path
           fill-rule="evenodd"
           clip-rule="evenodd"
           fill="#ffffff"
           stroke="#000000"
           stroke-width="3"
           stroke-linecap="round"
           d="m 176.217,168.87 c -6.47,15.68 3.608,47.035 21.163,23.908 -1.255,-9.946 0.468,-19.576 0.785,-29.526 z"
           id="path11507" />
        <g
           id="g11513">
	<path
   fill-rule="evenodd"
   clip-rule="evenodd"
   fill="#f6d2a2"
   stroke="#231f20"
   stroke-width="3"
   stroke-linecap="round"
   d="m 178.431,138.673 c -12.059,1.028 -21.916,15.366 -15.646,26.709 8.303,15.024 26.836,-1.329 38.379,0.203 13.285,0.272 24.17,14.047 34.84,2.49 11.867,-12.854 -5.109,-25.373 -18.377,-30.97 z"
   id="path11509" />

	<path
   fill-rule="evenodd"
   clip-rule="evenodd"
   d="m 176.913,138.045 c -0.893,-20.891 38.938,-23.503 43.642,-6.016 4.692,17.446 -41.681,21.498 -43.642,6.016 -1.565,-12.363 0,0 0,0 z"
   id="path11511" />

</g>
      </g>
    </g>
  </g>
</svg>
